<?xml version="1.0" encoding="utf-8"?>
<!-- Generator: Adobe Illustrator 14.0.0, SVG Export Plug-In . SVG Version: 6.00 Build 43363)  -->
<!DOCTYPE svg PUBLIC "-//W3C//DTD SVG 1.1//EN" "http://www.w3.org/Graphics/SVG/1.1/DTD/svg11.dtd">
<svg version="1.1" id="图层_1" xmlns="http://www.w3.org/2000/svg" xmlns:xlink="http://www.w3.org/1999/xlink" x="0px" y="0px"
	 width="1000px" height="1000px" viewBox="0 0 1000 1000" enable-background="new 0 0 1000 1000" xml:space="preserve">
<title>Group 3</title>
<desc>Created with Sketch.</desc>
<g id="Page-2">
	<g id="Group-3">
		<path id="Shape" fill="#EDEDED" d="M811.766,296.607c-86.25,0-156.109-69.859-156.109-156.109
			c0-38.832,14.733-73.957,38.247-101.276C634.094,13.952,568.431,0,499.549,0C223.626,0,0,223.724,0,499.549
			c0,275.923,223.626,499.549,499.549,499.549s499.549-223.626,499.549-499.549c0-93.568-26.246-180.892-71.03-255.824
			C899.48,275.922,858.209,296.607,811.766,296.607z"/>
		<path id="Shape_1_" fill="#CECECE" d="M238.676,767.257c-6.207,13.214-0.527,28.966,12.68,35.147
			c13.123,6.158,28.866,0.527,35.101-12.631c2.644-5.523,65.873-134.832,212.643-134.832c160.142,0,209.771,129.229,211.831,134.724
			c5.045,13.667,20.151,20.644,33.858,15.728c13.658-4.996,20.734-20.061,15.793-33.751
			c-0.631-1.661-63.442-169.528-261.482-169.528C318.203,602.113,241.82,760.52,238.676,767.257"/>
		<g id="Group" transform="translate(267.388813, 340.579181)">
			<path id="Oval-1" fill="#CECECE" d="M67.835,135.646c37.464,0,67.835-30.365,67.835-67.823C135.67,30.366,105.298,0,67.835,0
				S0,30.366,0,67.823C0,105.281,30.371,135.646,67.835,135.646z"/>
			<ellipse id="Oval-1-Copy" fill="#CECECE" cx="396.703" cy="67.823" rx="67.835" ry="67.823"/>
		</g>
		<g id="Group-2" transform="translate(671.314741, 0.000000)">
			<path id="Shape_2_" fill="#CECECE" d="M140.582,0C63.016,0,0.084,62.932,0.084,140.498s62.932,140.498,140.498,140.498
				c77.567,0,140.498-62.932,140.498-140.498S218.15,0,140.582,0L140.582,0z"/>
		</g>
	</g>
	<text transform="matrix(1 0 0 1 765.156 222.1621)" fill="#FFFFFF" font-family="'MicrosoftYaHei-Bold'" font-size="207.9628">?</text>
</g>
</svg>
